<?xml version="1.0" encoding="utf-8" ?><svg xmlns="http://www.w3.org/2000/svg" xmlns:xlink="http://www.w3.org/1999/xlink" width="1024" height="1024" viewBox="0 0 1024 1024"><path fill="white" d="M0 0L1024 0L1024 1024L0 1024L0 0Z"/><defs><linearGradient id="gradient_0" gradientUnits="userSpaceOnUse" x1="514.95642" y1="894.62732" x2="510.84323" y2="263.13971"><stop offset="0" stop-color="#12050A"/><stop offset="1" stop-color="#3240B1"/></linearGradient></defs><path fill="url(#gradient_0)" d="M176.745 268.468C179.397 262.601 185.603 253.032 189.273 247.661C209.842 217.188 237.415 192.088 269.682 174.466C329.17 142.159 410.922 131.976 478.129 130.56C608.992 127.803 776.169 134.291 846.82 264.975C860.19 287.273 870.085 317.892 876.923 342.916C877.576 345.304 880.142 355.459 880.303 357.473C882.507 365.567 884.006 375.804 885.373 384.205C888.722 403.926 891.12 423.796 892.557 443.748C896.008 485.395 896.315 527.243 893.475 568.937C889.491 634.243 879.154 703.77 846.112 761.371C811.372 821.933 757.816 857.098 691.383 875.013C593.948 901.29 438.398 901.963 340.891 876.958C314.369 870.157 288.87 860.814 265.117 847.093C199.88 809.407 167.235 753.428 148.275 682.189C128.068 606.266 126.216 504.676 134.162 426.82C135.613 412.602 137.03 395.745 140.2 381.92C140.387 378.362 143.745 362.911 144.598 359.199C151.173 330.594 161.784 294.009 176.745 268.468Z"/><path fill="#334BC1" d="M176.745 268.468C179.397 262.601 185.603 253.032 189.273 247.661C209.842 217.188 237.415 192.088 269.682 174.466C329.17 142.159 410.922 131.976 478.129 130.56C608.992 127.803 776.169 134.291 846.82 264.975L846.398 265.81C847.826 269.624 852.347 275.153 851.496 278.047C850.894 278.2 843.783 274.602 842.518 273.95C834.805 269.978 824.938 270.446 817.439 268.589C805.117 265.539 800.785 266.45 788.635 268.795C785.885 269.326 780.783 266.458 777.22 266.696L773.826 266.894C772.877 265.79 772.635 265.047 771.213 265.075C761.853 265.262 752.459 264.603 743.121 265.137C740.857 265.266 738.25 263.57 735.475 263.563C729.321 263.548 721.796 265.988 716.005 263.995C715.062 263.671 715.331 263.756 714.25 263.936L713.369 265.205C712.15 265.005 711.154 264.676 710.222 264.502C699.142 262.558 686.67 264.069 675.346 263.971C673.365 263.873 663.347 266.423 661.986 266.087C652.75 263.811 646.682 269.162 640.098 269.841C624.204 271.481 610.334 280.233 595.129 282.291C580.612 284.256 570.34 286.549 556.625 281.096L555.574 282.016C555.702 283.844 556.03 283.336 555.276 284.393C554.616 282.465 555.632 271.571 554.869 267.185C554.408 267.602 554.542 267.366 554.39 267.841L554.228 267.16C553.334 263.247 553.277 259.607 551.982 255.535C541.278 221.883 496.335 217.05 477.745 246.805C468.659 261.346 471.818 273.501 470.909 289.142C470.437 285.4 471.535 277.667 470.154 275.611L469.826 277.732C468.367 276.965 467.692 274.62 466.43 273.445C464.452 271.606 445.271 271.015 441.209 271.043C428.816 271.13 416.558 274.936 404.157 275.703C399.262 276.006 394.332 273.737 389.404 273.645C385.947 273.581 382.473 275.405 379.123 275.123C374.56 274.738 369.368 272.025 365.043 270.433C357.615 267.698 346.823 265.687 338.899 266.259C338.689 266.274 338.48 266.293 338.271 266.311L336.857 264.929C330.088 265.197 322.664 267.047 316.321 266.927C310.391 266.656 304.638 263.885 298.6 264.555C287.028 265.841 276.115 269.096 264.382 269.693C260.921 269.87 255.159 272.333 251.24 272.781C243.841 273.628 236.453 274.968 229.154 276.373C219.773 277.895 208.546 276.054 198.959 278.838C193.498 280.424 184.979 279.797 179.366 281.501C174.007 283.129 174.644 282.166 170.019 285.758C169.562 283.587 176.006 272.016 177.442 268.854L176.745 268.468Z"/><path fill="#37B3D1" d="M580.835 544.771L580.947 405.524L580.988 368.48C581.004 359.604 580.677 348.386 582.23 339.881C583.677 332.321 587.228 325.323 592.475 319.692C599.9 311.64 610.221 306.87 621.165 306.432C632.149 305.992 642.848 309.99 650.853 317.524C656.88 323.268 661.168 330.593 663.226 338.66C665.685 348.395 664.799 366.956 664.959 377.599C665.293 399.803 664.512 422.659 665.068 444.834C664.685 465.697 664.985 487.341 665.003 508.252L664.974 613.63L665.006 653.793C665.011 662.592 665.545 671.886 664.067 680.538C658.341 714.052 614.829 726.402 591.874 701.674C579.587 688.412 580.937 673.207 580.907 656.431L580.937 628.043C580.95 623.445 581.194 616.376 580.852 611.927C582.57 609.758 590.829 601.917 593.351 599.356C602.315 590.102 611.348 580.916 620.451 571.799C625.111 567.173 631.047 562.027 634.616 556.656C639.911 548.687 638.771 535.994 632.417 528.803C628.086 523.825 621.896 520.85 615.303 520.576C600.809 519.991 591.233 534.987 580.835 544.771Z"/><path fill="#37B3D1" d="M361.025 442.812C361.49 434.968 361.203 424.357 361.17 416.326L361.048 371.166C361.062 351.566 359.111 331.335 375.351 317.039C383.636 309.746 395.054 305.757 406.072 306.578C417.027 307.322 427.213 312.472 434.306 320.853C446.023 334.608 444.576 350.179 444.594 367.048L444.623 407.093L444.999 545.679C437.81 538.891 431.168 531.085 423.902 525.142C408.495 512.54 384.686 527.28 386.334 545.859C387.93 563.858 418.951 583.72 429.697 597.967C433.235 602.657 440.587 608.442 444.604 613.105C444.246 617.73 444.486 625.617 444.511 630.432L444.731 661.253C444.784 668.09 445.175 677.204 443.636 683.68C442.067 690.017 438.948 695.864 434.558 700.695C418.415 718.47 391.808 719.458 374.111 703.415C359.014 689.73 360.876 672.89 360.968 654.409L361.048 618.263L361.212 498.06C361.196 480.328 361.61 460.375 361.025 442.812Z"/><path fill="white" d="M486.773 587.982C486.023 551.528 486.722 512.279 486.626 475.513L486.689 413.528C486.728 406.228 486.423 387.75 487.823 381.757C488.976 376.954 491.473 372.578 495.024 369.144C510.517 354.145 537.402 364.813 538.689 386.345C539.226 395.336 539.326 403.748 539.339 412.751L539.244 460.789L539.153 546.504C539.141 559.817 539.566 574.384 539.163 587.513C544.218 581.759 549.71 576.389 555.169 571.017C563.787 562.33 572.342 553.581 580.835 544.771C591.233 534.987 600.809 519.991 615.303 520.576C621.896 520.85 628.086 523.825 632.417 528.803C638.771 535.994 639.911 548.687 634.616 556.656C631.047 562.027 625.111 567.173 620.451 571.799C611.348 580.916 602.315 590.102 593.351 599.356C590.829 601.917 582.57 609.758 580.852 611.927C575.943 616.316 559.312 632.739 554.804 637.955C511.485 681.61 517.016 686.269 470.856 639.636C462.183 631.469 453.014 621.721 444.604 613.105C440.587 608.442 433.235 602.657 429.697 597.967C418.951 583.72 387.93 563.858 386.334 545.859C384.686 527.28 408.495 512.54 423.902 525.142C431.168 531.085 437.81 538.891 444.999 545.679C452.941 554.071 463.052 563.305 470.377 571.531C474.599 576.305 481.813 582.623 486.773 587.982Z"/><defs><linearGradient id="gradient_1" gradientUnits="userSpaceOnUse" x1="490.30563" y1="586.20587" x2="537.63104" y2="230.47864"><stop offset="0" stop-color="#37C6C4"/><stop offset="1" stop-color="#2D7CF8"/></linearGradient></defs><path fill="url(#gradient_1)" d="M470.909 289.142C471.818 273.501 468.659 261.346 477.745 246.805C496.335 217.05 541.278 221.883 551.982 255.535C553.277 259.607 553.334 263.247 554.228 267.16L554.39 267.841C554.913 337.415 555.017 406.99 554.702 476.565L554.781 539.037C554.796 547.023 554.37 563.831 555.169 571.017C549.71 576.389 544.218 581.759 539.163 587.513C539.566 574.384 539.141 559.817 539.153 546.504L539.244 460.789L539.339 412.751C539.326 403.748 539.226 395.336 538.689 386.345C537.402 364.813 510.517 354.145 495.024 369.144C491.473 372.578 488.976 376.954 487.823 381.757C486.423 387.75 486.728 406.228 486.689 413.528L486.626 475.513C486.722 512.279 486.023 551.528 486.773 587.982C481.813 582.623 474.599 576.305 470.377 571.531C471.425 569.271 471.005 542.692 471.005 538.272L470.985 473.235L470.909 289.142Z"/><defs><linearGradient id="gradient_2" gradientUnits="userSpaceOnUse" x1="509.08698" y1="639.73987" x2="518.33325" y2="793.51001"><stop offset="0" stop-color="#32ADA8"/><stop offset="1" stop-color="#43DBC8"/></linearGradient></defs><path fill="url(#gradient_2)" d="M470.856 639.636C517.016 686.269 511.485 681.61 554.804 637.955L554.938 719.122C554.935 730.288 555.528 753.845 553.346 763.474C551.71 770.637 548.087 777.193 542.892 782.389C516.952 808.293 472.185 791.744 471.074 754.235C469.944 716.09 471.853 677.739 470.856 639.636Z"/><defs><linearGradient id="gradient_3" gradientUnits="userSpaceOnUse" x1="741.4635" y1="620.61591" x2="724.45959" y2="400.89008"><stop offset="0" stop-color="#3FD0C1"/><stop offset="1" stop-color="#32A6DD"/></linearGradient></defs><path fill="url(#gradient_3)" d="M727.804 400.143C737.699 398.884 747.717 401.212 756.042 406.704C779.216 421.792 775.496 446.181 775.515 470.25L775.522 527.224L775.5 563.924C775.494 569.795 775.736 579.944 775.026 585.534C774.261 591.79 772.07 597.787 768.622 603.063C761.394 614.026 751.732 619.184 739.216 621.766C728.694 623.292 717.987 620.706 709.321 614.546C687.839 599.511 690.992 578.968 690.972 555.793L691.105 500.876L691.153 459.631C691.176 444.967 689.594 430.275 698.845 417.759C706.456 407.461 715.202 402.164 727.804 400.143Z"/><defs><linearGradient id="gradient_4" gradientUnits="userSpaceOnUse" x1="299.47357" y1="620.5564" x2="284.42178" y2="400.91653"><stop offset="0" stop-color="#3ECFC2"/><stop offset="1" stop-color="#33A5DE"/></linearGradient></defs><path fill="url(#gradient_4)" d="M288.294 400.17C308.455 396.489 331.546 414.668 333.37 434.792C334.245 444.437 334.124 453.718 334.136 463.391L334.228 508.438L334.399 559.24C334.406 567.475 335.027 579.312 333.743 587.174C330.493 607.073 315.643 619.216 296.626 621.805C275.26 625.007 252.583 606.931 250.826 585.494C250.117 576.856 250.368 567.617 250.381 558.93L250.432 510.671L250.211 464.631C250.114 447.755 248.08 429.968 259.374 415.939C267.051 406.403 276.25 401.731 288.294 400.17Z"/></svg>